<svg width="41" height="41" viewBox="0 0 41 41" fill="none" xmlns="http://www.w3.org/2000/svg">
<path d="M27.4492 17.2022H17.2944C16.7652 17.2022 16.3014 16.8482 16.1619 16.3377C16.0224 15.8273 16.2416 15.2866 16.6971 15.0173C21.1216 12.4029 23.4198 9.35319 23.7229 5.69398C23.8286 4.42405 24.9597 3.40968 26.2437 3.42648C27.5538 3.44741 28.7813 3.97257 29.7006 4.90538C30.6206 5.83905 31.1276 7.07546 31.1281 8.38671C31.1281 8.38687 31.1281 8.38702 31.1281 8.38718V8.78163C31.1281 11.9848 30.1793 14.0271 28.4288 16.6754C28.2112 17.0044 27.8435 17.2022 27.4492 17.2022Z" fill="#FFC380"/>
<path d="M39.8945 18.5328C39.8945 16.5043 38.2442 14.854 36.2157 14.854H17.2945C17.0843 14.854 16.8779 14.9104 16.697 15.0174C15.3688 15.8028 14.0277 16.4492 12.9502 16.9688C12.5743 17.15 12.2193 17.3212 11.8964 17.4826C11.4987 17.6815 11.2474 18.088 11.2474 18.5328V33.5608C11.2474 34.0056 11.4987 34.4121 11.8964 34.611C16.6404 36.9826 20.5838 37.2694 25.1824 37.2694C25.8945 37.2694 26.6227 37.2625 27.3717 37.2555C28.1999 37.2477 29.0563 37.2396 29.9541 37.2396H33.6657C35.6942 37.2396 37.3445 35.5893 37.3445 33.5608C37.3445 32.8788 37.158 32.2396 36.8331 31.6914C37.8901 31.0443 38.5968 29.8789 38.5968 28.5514C38.5968 27.8694 38.4103 27.2302 38.0855 26.682C39.1424 26.0349 39.8492 24.8696 39.8492 23.5421C39.8492 22.588 39.4841 21.7176 38.8863 21.0633C39.5373 20.3773 39.8945 19.4825 39.8945 18.5328Z" fill="#FFCF99"/>
<path d="M12.4055 14.854H2.38683C1.73878 14.854 1.21277 15.38 1.21277 16.0281V36.0654C1.21277 36.7142 1.73878 37.2395 2.38683 37.2543H9.90082C11.3402 37.2395 12.5886 36.409 13.1921 35.2021C13.4403 34.7081 13.5796 34.1501 13.5796 33.5607V16.0281C13.5796 15.3799 13.0536 14.854 12.4055 14.854Z" fill="#44A4EC"/>
<path d="M8.57042 30.9927V37.2544H6.22229V30.9927C6.22229 30.3446 6.74831 29.8186 7.39635 29.8186C8.0444 29.8186 8.57042 30.3446 8.57042 30.9927Z" fill="#73C3FF"/>
</svg>
