<svg width="32" height="32" viewBox="0 0 32 32" fill="none" xmlns="http://www.w3.org/2000/svg">
<path fill-rule="evenodd" clip-rule="evenodd" d="M16 30.6666C24.1002 30.6666 30.6666 24.1002 30.6666 16C30.6666 7.8998 24.1002 1.33331 16 1.33331C7.8998 1.33331 1.33331 7.8998 1.33331 16C1.33331 24.1002 7.8998 30.6666 16 30.6666Z" stroke="white" stroke-width="2" stroke-linecap="round" stroke-linejoin="round"/>
<path d="M10.6666 20C10.6666 22.9455 13.0544 25.3333 16 25.3333C18.9455 25.3333 21.3333 22.9455 21.3333 20H10.6666Z" fill="white"/>
<path d="M10 16C11.1046 16 12 15.1046 12 14C12 12.8954 11.1046 12 10 12C8.89543 12 8 12.8954 8 14C8 15.1046 8.89543 16 10 16Z" fill="white"/>
<path d="M22 16C23.1046 16 24 15.1046 24 14C24 12.8954 23.1046 12 22 12C20.8954 12 20 12.8954 20 14C20 15.1046 20.8954 16 22 16Z" fill="white"/>
</svg>
