<svg width="41" height="41" viewBox="0 0 41 41" fill="none" xmlns="http://www.w3.org/2000/svg">
<g clip-path="url(#clip0)">
<path d="M20.5521 40.3079C16.5946 40.308 12.726 39.134 9.43596 36.9344C6.14595 34.7349 3.58244 31.6088 2.06991 27.9517C0.557382 24.2946 0.163825 20.271 0.939057 16.3901C1.71429 12.5092 3.62346 8.94562 6.42491 6.15028C10.1797 2.40352 15.2692 0.301807 20.5736 0.307507C25.878 0.313206 30.9629 2.42585 34.7097 6.18067C38.4564 9.93549 40.5582 15.0249 40.5525 20.3293C40.5468 25.6338 38.4341 30.7187 34.6793 34.4654C32.8269 36.3238 30.6247 37.7968 28.2 38.7996C25.7753 39.8023 23.176 40.315 20.5521 40.3079Z" fill="#FDCC20"/>
<path d="M5.55359 20.9338C6.58912 20.9338 7.42859 20.0944 7.42859 19.0588C7.42859 18.0233 6.58912 17.1838 5.55359 17.1838C4.51805 17.1838 3.67859 18.0233 3.67859 19.0588C3.67859 20.0944 4.51805 20.9338 5.55359 20.9338Z" fill="#FFE4C0"/>
<path d="M35.5536 20.934C36.5892 20.934 37.4286 20.0945 37.4286 19.059C37.4286 18.0234 36.5892 17.184 35.5536 17.184C34.5181 17.184 33.6786 18.0234 33.6786 19.059C33.6786 20.0945 34.5181 20.934 35.5536 20.934Z" fill="#FFE4C0"/>
<path d="M16.1785 15.309C16.0128 15.309 15.8538 15.2431 15.7366 15.1259C15.6194 15.0087 15.5535 14.8497 15.5535 14.684C15.5535 14.1867 15.356 13.7098 15.0044 13.3581C14.6527 13.0065 14.1758 12.809 13.6785 12.809C13.1812 12.809 12.7043 13.0065 12.3527 13.3581C12.0011 13.7098 11.8035 14.1867 11.8035 14.684C11.8035 14.8497 11.7377 15.0087 11.6205 15.1259C11.5033 15.2431 11.3443 15.309 11.1785 15.309C11.0128 15.309 10.8538 15.2431 10.7366 15.1259C10.6194 15.0087 10.5535 14.8497 10.5535 14.684C10.5535 13.8552 10.8828 13.0603 11.4688 12.4743C12.0549 11.8882 12.8497 11.559 13.6785 11.559C14.5073 11.559 15.3022 11.8882 15.8882 12.4743C16.4743 13.0603 16.8035 13.8552 16.8035 14.684C16.8035 14.8497 16.7377 15.0087 16.6205 15.1259C16.5033 15.2431 16.3443 15.309 16.1785 15.309Z" fill="#424242"/>
<path d="M31.1786 15.3088C31.0129 15.3088 30.8539 15.243 30.7367 15.1258C30.6195 15.0086 30.5536 14.8496 30.5536 14.6838C30.5536 14.1866 30.3561 13.7096 30.0045 13.358C29.6528 13.0064 29.1759 12.8088 28.6786 12.8088C28.1814 12.8088 27.7045 13.0064 27.3528 13.358C27.0012 13.7096 26.8036 14.1866 26.8036 14.6838C26.8036 14.8496 26.7378 15.0086 26.6206 15.1258C26.5034 15.243 26.3444 15.3088 26.1786 15.3088C26.0129 15.3088 25.8539 15.243 25.7367 15.1258C25.6195 15.0086 25.5536 14.8496 25.5536 14.6838C25.5536 13.855 25.8829 13.0602 26.4689 12.4741C27.055 11.8881 27.8498 11.5588 28.6786 11.5588C29.5075 11.5588 30.3023 11.8881 30.8884 12.4741C31.4744 13.0602 31.8036 13.855 31.8036 14.6838C31.8036 14.8496 31.7378 15.0086 31.6206 15.1258C31.5034 15.243 31.3444 15.3088 31.1786 15.3088Z" fill="#424242"/>
<path d="M30.0494 32.1813C29.3462 32.1784 28.6504 32.0369 28.0019 31.7649C27.3534 31.4929 26.7648 31.0958 26.2699 30.5962L22.7125 27.0388L23.7432 26.7514C26.6305 25.9467 29.0143 24.0761 30.2833 21.6199L30.6758 20.8601L33.341 23.5251C34.3176 24.4897 34.8855 25.7933 34.9269 27.1653C34.9517 27.819 34.8436 28.4709 34.609 29.0815C34.3745 29.6921 34.0184 30.2487 33.5624 30.7177C33.1064 31.1866 32.5599 31.5581 31.9561 31.8096C31.3523 32.0612 30.7037 32.1875 30.0497 32.181L30.0494 32.1813Z" fill="#EF5350"/>
<path d="M30.4193 28.2996C30.3372 28.2997 30.2559 28.2836 30.18 28.2522C30.1042 28.2207 30.0353 28.1747 29.9773 28.1165L27.5828 25.722C27.5247 25.664 27.4787 25.5951 27.4473 25.5192C27.4159 25.4434 27.3997 25.3621 27.3997 25.28C27.3997 25.198 27.4159 25.1167 27.4473 25.0409C27.4787 24.965 27.5247 24.8961 27.5828 24.8381C27.6408 24.7801 27.7097 24.734 27.7856 24.7026C27.8614 24.6712 27.9427 24.655 28.0247 24.655C28.1068 24.655 28.1881 24.6712 28.2639 24.7026C28.3397 24.734 28.4086 24.7801 28.4667 24.8381L30.8613 27.2326C30.9487 27.32 31.0082 27.4314 31.0324 27.5527C31.0565 27.6739 31.0441 27.7996 30.9968 27.9138C30.9495 28.028 30.8693 28.1256 30.7665 28.1943C30.6637 28.263 30.5429 28.2996 30.4193 28.2996Z" fill="#E53935"/>
<path d="M20.5536 28.434C13.9627 28.434 8.60046 23.5975 8.60046 17.6527C8.60046 17.4869 8.66631 17.328 8.78352 17.2108C8.90073 17.0936 9.0597 17.0277 9.22546 17.0277C9.39122 17.0277 9.5502 17.0936 9.66741 17.2108C9.78462 17.328 9.85046 17.4869 9.85046 17.6527C9.85046 22.9083 14.6519 27.184 20.5536 27.184C26.4553 27.184 31.2567 22.9083 31.2567 17.6527C31.2567 17.4869 31.3226 17.328 31.4398 17.2108C31.557 17.0936 31.716 17.0277 31.8817 17.0277C32.0475 17.0277 32.2064 17.0936 32.3237 17.2108C32.4409 17.328 32.5067 17.4869 32.5067 17.6527C32.5067 23.5975 27.1445 28.434 20.5536 28.434Z" fill="#EF5350"/>
</g>
<defs>
<clipPath id="clip0">
<rect x="0.553589" y="0.30896" width="40" height="40" fill="white"/>
</clipPath>
</defs>
</svg>
