<svg width="140" height="179" viewBox="0 0 140 179" fill="none" xmlns="http://www.w3.org/2000/svg">
<path d="M69.6491 0C31.2447 0 3.24249e-05 31.2188 3.24249e-05 69.5921C3.24249e-05 93.3292 11.2696 118.814 33.4968 145.338C49.8218 164.82 65.9248 177.349 66.6026 177.873C67.4997 178.567 68.5744 178.914 69.6498 178.914C70.7244 178.914 71.7998 178.567 72.6969 177.873C73.374 177.349 89.4777 164.82 105.803 145.338C128.03 118.814 139.299 93.3299 139.299 69.5921C139.298 31.2188 108.053 0 69.6491 0ZM95.4429 69.5914C95.4429 83.8247 83.8943 95.364 69.6491 95.364C55.4039 95.364 43.8554 83.8254 43.8554 69.5914C43.8554 55.3575 55.4039 43.8189 69.6491 43.8189C83.8943 43.8189 95.4429 55.3582 95.4429 69.5914Z" fill="#FF647C"/>
<path d="M69.6488 0C66.605 0 63.6069 0.197445 60.6651 0.577758C94.8423 4.99509 121.331 34.26 121.331 69.5921C121.331 93.3292 110.061 118.814 87.8343 145.338C77.3359 157.866 66.9369 167.512 60.6657 172.947C64.1469 175.963 66.3612 177.687 66.6023 177.873C67.4995 178.567 68.5741 178.914 69.6495 178.914C70.7242 178.914 71.7995 178.567 72.6966 177.873C73.3738 177.349 89.4775 164.82 105.802 145.338C128.03 118.814 139.299 93.3299 139.299 69.5921C139.298 31.2188 108.053 0 69.6488 0Z" fill="#FF647C"/>
</svg>
