<svg width="759" height="1252" viewBox="0 0 759 1252" fill="none" 
  xmlns="http://www.w3.org/2000/svg">
  <path d="M395 27V116.351H127C71.7715 116.351 27 161.123 27 216.351V291.663C27 346.891 71.7715 391.663 127 391.663H379.5H632C687.228 391.663 732 436.434 732 491.663V568.161C732 623.389 687.228 668.161 632 668.161H127C71.7715 668.161 27 712.932 27 768.161V851.089C27 906.317 71.7715 951.088 127 951.088H632C687.228 951.088 732 995.86 732 1051.09V1125.04C732 1180.26 687.228 1225.04 632 1225.04H43" stroke="#B0DCE0" stroke-width="53" stroke-linecap="round"/>
  <path d="M394 27.9648V114.874H126C70.7715 114.874 26 159.645 26 214.874V290.377C26 345.605 70.7715 390.377 126 390.377H378.5H631C686.228 390.377 731 435.148 731 490.377V568.188C731 623.417 686.228 668.188 631 668.188H126C70.7715 668.188 26 712.96 26 768.188V851.089C26 906.317 70.7715 951.089 126 951.089H378.5H631C686.228 951.089 731 995.86 731 1051.09V1126C731 1181.23 686.228 1226 631 1226H26" stroke="#90D7DD" stroke-width="2" stroke-linecap="round" stroke-dasharray="8 8"/>
</svg>
