<svg width="172" height="221" viewBox="0 0 172 221" fill="none" xmlns="http://www.w3.org/2000/svg">
<circle cx="96.8794" cy="92.735" r="47.1446" fill="white"/>
<path d="M85.9992 0C38.5794 0 0 38.5475 0 85.9288C0 115.238 13.9152 146.706 41.3601 179.456C61.5174 203.511 81.4006 218.982 82.2375 219.629C83.3453 220.486 84.6722 220.914 86 220.914C87.327 220.914 88.6548 220.486 89.7625 219.629C90.5986 218.982 110.483 203.511 130.64 179.456C158.085 146.706 172 115.239 172 85.9288C171.998 38.5475 133.419 0 85.9992 0ZM117.848 85.928C117.848 103.503 103.588 117.751 85.9992 117.751C68.4099 117.751 54.1504 103.503 54.1504 85.928C54.1504 68.3527 68.4099 54.1054 85.9992 54.1054C103.588 54.1054 117.848 68.3535 117.848 85.928Z" fill="#FF647C"/>
<path d="M85.9989 0.00012207C82.2405 0.00012207 78.5386 0.243917 74.9062 0.713509C117.107 6.16781 149.814 42.3027 149.814 85.9289C149.814 115.238 135.898 146.706 108.453 179.456C95.4906 194.925 82.6504 206.836 74.9071 213.546C79.2054 217.27 81.9395 219.399 82.2373 219.629C83.345 220.486 84.672 220.914 85.9997 220.914C87.3267 220.914 88.6545 220.486 89.7622 219.629C90.5983 218.982 110.482 203.511 130.64 179.456C158.085 146.706 172 115.239 172 85.9289C171.998 38.5476 133.419 0.00012207 85.9989 0.00012207Z" fill="#FF647C"/>
</svg>
